<svg xmlns="http://www.w3.org/2000/svg" version="1.1" xmlns:xlink="http://www.w3.org/1999/xlink" xmlns:svgjs="http://svgjs.com/svgjs" width="30" height="25"><svg width="30" height="25" viewBox="0 0 30 25" fill="none" xmlns="http://www.w3.org/2000/svg">
<path d="M14.91 16.9198L27.33 24.0898C27.5833 24.2349 27.8702 24.311 28.162 24.3107C28.4539 24.3103 28.7406 24.2335 28.9936 24.0878C29.2465 23.9421 29.4568 23.7327 29.6036 23.4803C29.7503 23.228 29.8284 22.9417 29.83 22.6498V8.37979L16.14 0.329793C15.7679 0.113777 15.3453 0 14.915 0C14.4847 0 14.0621 0.113777 13.69 0.329793L0 8.37979V22.6498C0.00159461 22.9417 0.0796632 23.228 0.226424 23.4803C0.373185 23.7327 0.583512 23.9421 0.836441 24.0878C1.08937 24.2335 1.37607 24.3103 1.66795 24.3107C1.95984 24.311 2.24672 24.2349 2.5 24.0898L14.91 16.9198Z" fill="#2FAEC3"></path>
</svg><style>@media (prefers-color-scheme: light) { :root { filter: none; } }
</style></svg>