<svg width="125" height="40" viewBox="0 0 125 40" fill="none" xmlns="http://www.w3.org/2000/svg">
<g clip-path="url(#clip0_116_631)">
<path d="M14.91 16.92L27.33 24.09C27.5833 24.235 27.8702 24.3112 28.162 24.3109C28.4539 24.3105 28.7406 24.2336 28.9936 24.088C29.2465 23.9423 29.4568 23.7328 29.6036 23.4805C29.7503 23.2282 29.8284 22.9419 29.83 22.65V8.37998L16.14 0.329976C15.7679 0.11396 15.3453 0.000183105 14.915 0.000183105C14.4847 0.000183105 14.0621 0.11396 13.69 0.329976L0 8.37998V22.65C0.00159461 22.9419 0.0796632 23.2282 0.226424 23.4805C0.373185 23.7328 0.583512 23.9423 0.836441 24.088C1.08937 24.2336 1.37607 24.3105 1.66795 24.3109C1.95984 24.3112 2.24672 24.235 2.5 24.09L14.91 16.92Z" fill="#2FAEC3"/>
<path d="M29.83 8.38L14.91 16.92L27.33 24.09C27.5833 24.2351 27.8702 24.3112 28.1621 24.3109C28.454 24.3105 28.7407 24.2337 28.9936 24.088C29.2465 23.9423 29.4569 23.7329 29.6036 23.4806C29.7504 23.2283 29.8284 22.9419 29.83 22.65V8.38Z" fill="#F6BA2F"/>
<path d="M69.88 31.11C69.8787 31.0627 69.8867 31.0157 69.9036 30.9715C69.9204 30.9273 69.9458 30.8868 69.9784 30.8525C70.0109 30.8181 70.0498 30.7905 70.093 30.7712C70.1362 30.7519 70.1828 30.7413 70.23 30.74C70.279 30.7386 70.3277 30.7473 70.3732 30.7654C70.4187 30.7835 70.4601 30.8107 70.4947 30.8453C70.5294 30.8799 70.5566 30.9213 70.5747 30.9668C70.5928 31.0123 70.6014 31.061 70.6 31.11V33.73C70.7879 33.4106 71.0551 33.1452 71.3757 32.9594C71.6963 32.7737 72.0595 32.674 72.43 32.67C72.7457 32.6748 73.0571 32.7436 73.3453 32.8724C73.6335 33.0012 73.8925 33.1871 74.1067 33.4191C74.3209 33.651 74.4857 33.924 74.5911 34.2216C74.6965 34.5191 74.7404 34.835 74.72 35.15C74.7403 35.466 74.6966 35.7829 74.5913 36.0815C74.4861 36.3802 74.3216 36.6545 74.1077 36.888C73.8939 37.1215 73.635 37.3093 73.3467 37.4403C73.0584 37.5712 72.7466 37.6426 72.43 37.65C72.0652 37.6523 71.7058 37.5617 71.3857 37.3867C71.0655 37.2118 70.7952 36.9583 70.6 36.65V37.26C70.6 37.3555 70.5621 37.4471 70.4946 37.5146C70.4271 37.5821 70.3355 37.62 70.24 37.62C70.1445 37.62 70.053 37.5821 69.9855 37.5146C69.918 37.4471 69.88 37.3555 69.88 37.26V31.11ZM74 35.18C74.0207 34.943 73.9922 34.7044 73.9165 34.4789C73.8407 34.2534 73.7193 34.046 73.5597 33.8695C73.4002 33.6931 73.206 33.5515 72.9892 33.4535C72.7725 33.3555 72.5379 33.3032 72.3 33.3C72.0649 33.3078 71.8336 33.3618 71.6194 33.459C71.4052 33.5562 71.2123 33.6946 71.0516 33.8664C70.8909 34.0382 70.7657 34.24 70.683 34.4603C70.6004 34.6805 70.562 34.9149 70.57 35.15C70.562 35.3851 70.6004 35.6195 70.683 35.8397C70.7657 36.06 70.8909 36.2618 71.0516 36.4336C71.2123 36.6054 71.4052 36.7439 71.6194 36.8411C71.8336 36.9382 72.0649 36.9923 72.3 37C72.5337 37.0006 72.7651 36.953 72.9796 36.8601C73.194 36.7673 73.3871 36.6312 73.5466 36.4604C73.7061 36.2896 73.8287 36.0878 73.9068 35.8675C73.9848 35.6472 74.0165 35.4131 74 35.18Z" fill="#5A5A5A"/>
<path d="M75.85 38.94C75.784 38.919 75.7262 38.8778 75.6849 38.8221C75.6437 38.7665 75.6209 38.6993 75.62 38.63C75.62 38.5893 75.628 38.549 75.6436 38.5114C75.6592 38.4738 75.682 38.4396 75.7108 38.4108C75.7396 38.382 75.7738 38.3592 75.8114 38.3436C75.849 38.328 75.8893 38.32 75.93 38.32C75.9896 38.3106 76.0504 38.3106 76.11 38.32C76.2757 38.3839 76.4524 38.4145 76.63 38.41C77.07 38.41 77.33 38.14 77.63 37.55V37.48L75.63 33.23C75.6206 33.1637 75.6206 33.0963 75.63 33.03C75.63 32.9832 75.6393 32.9369 75.6576 32.8937C75.6758 32.8506 75.7024 32.8116 75.736 32.7789C75.7696 32.7463 75.8094 32.7207 75.853 32.7037C75.8966 32.6867 75.9432 32.6787 75.99 32.68C76.0722 32.6814 76.1518 32.7095 76.2167 32.76C76.2816 32.8105 76.3284 32.8807 76.35 32.96L78 36.77L79.45 33C79.4715 32.9233 79.5172 32.8556 79.5802 32.807C79.6433 32.7584 79.7204 32.7314 79.8 32.73C79.8928 32.73 79.9818 32.7669 80.0475 32.8325C80.1131 32.8982 80.15 32.9872 80.15 33.08C80.1594 33.1396 80.1594 33.2004 80.15 33.26L78.28 37.73C77.86 38.73 77.4 39.09 76.67 39.09C76.3898 39.0902 76.112 39.0393 75.85 38.94Z" fill="#5A5A5A"/>
<path d="M101.2 38.47C100.789 38.4793 100.379 38.415 99.99 38.28C99.6632 38.1757 99.3629 38.0017 99.11 37.77C98.8758 37.5599 98.6913 37.3003 98.57 37.01C98.449 36.708 98.3878 36.3853 98.39 36.06V34.13C98.38 33.7878 98.4413 33.4472 98.57 33.13C98.6912 32.8368 98.8756 32.5739 99.11 32.36C99.3681 32.1354 99.6668 31.9623 99.99 31.85C100.777 31.5968 101.623 31.5968 102.41 31.85C102.735 31.9646 103.037 32.1374 103.3 32.36C103.528 32.5769 103.709 32.8392 103.83 33.13C103.967 33.4449 104.032 33.7866 104.02 34.13V36.06C104.024 36.3864 103.959 36.71 103.83 37.01C103.709 37.2978 103.528 37.5568 103.3 37.77C103.042 37.9997 102.739 38.1733 102.41 38.28C102.021 38.415 101.611 38.4793 101.2 38.47ZM101.2 36.94C101.476 36.9575 101.749 36.876 101.97 36.71C102.057 36.6267 102.126 36.5255 102.171 36.4134C102.216 36.3012 102.236 36.1807 102.23 36.06V34.06C102.235 33.9424 102.214 33.8251 102.169 33.7163C102.125 33.6075 102.056 33.5098 101.97 33.43C101.752 33.2563 101.478 33.1706 101.2 33.19C100.925 33.1691 100.653 33.2551 100.44 33.43C100.352 33.5085 100.283 33.606 100.238 33.7151C100.192 33.8242 100.173 33.9421 100.18 34.06V36.06C100.172 36.1809 100.191 36.302 100.236 36.4145C100.281 36.527 100.351 36.628 100.44 36.71C100.656 36.8777 100.927 36.9597 101.2 36.94Z" fill="#F64C32"/>
<path d="M107.35 38.47C106.939 38.4793 106.529 38.415 106.14 38.28C105.811 38.1733 105.508 37.9997 105.25 37.77C105.022 37.5568 104.841 37.2978 104.72 37.01C104.596 36.7086 104.531 36.386 104.53 36.06V34.13C104.523 33.7871 104.588 33.4466 104.72 33.13C104.841 32.8392 105.022 32.5769 105.25 32.36C105.513 32.1374 105.815 31.9646 106.14 31.85C106.927 31.5968 107.773 31.5968 108.56 31.85C108.883 31.9623 109.182 32.1354 109.44 32.36C109.674 32.5739 109.859 32.8368 109.98 33.13C110.109 33.4472 110.17 33.7878 110.16 34.13V36.06C110.167 36.3807 110.113 36.6998 110 37C109.879 37.2903 109.694 37.5499 109.46 37.76C109.207 37.9917 108.907 38.1657 108.58 38.27C108.186 38.4108 107.769 38.4785 107.35 38.47ZM107.35 36.94C107.623 36.9597 107.894 36.8777 108.11 36.71C108.199 36.628 108.269 36.527 108.314 36.4145C108.359 36.302 108.378 36.1809 108.37 36.06V34.06C108.377 33.9421 108.357 33.8242 108.312 33.7151C108.267 33.606 108.198 33.5085 108.11 33.43C107.897 33.2551 107.625 33.1691 107.35 33.19C107.072 33.1706 106.797 33.2563 106.58 33.43C106.493 33.5098 106.425 33.6075 106.381 33.7163C106.336 33.8251 106.315 33.9424 106.32 34.06V36.06C106.314 36.1807 106.334 36.3012 106.379 36.4134C106.424 36.5255 106.492 36.6267 106.58 36.71C106.801 36.876 107.074 36.9575 107.35 36.94Z" fill="#F64C32"/>
<path d="M110.77 29.81C110.771 29.6034 110.854 29.4056 111 29.26C111.088 29.1773 111.192 29.1134 111.305 29.0721C111.419 29.0309 111.54 29.0131 111.66 29.02C111.781 29.0113 111.902 29.0282 112.016 29.0695C112.129 29.1109 112.233 29.1758 112.32 29.26C112.396 29.3302 112.456 29.4153 112.497 29.5099C112.539 29.6046 112.56 29.7067 112.56 29.81V32.09C112.758 31.975 112.97 31.8843 113.19 31.82C113.799 31.6796 114.434 31.7038 115.03 31.89C115.299 31.9867 115.545 32.1402 115.75 32.34C115.939 32.5349 116.079 32.7712 116.16 33.03C116.25 33.3042 116.294 33.5914 116.29 33.88V36.06C116.291 36.3843 116.233 36.706 116.12 37.01C116.003 37.2973 115.825 37.5564 115.6 37.77C115.353 37.9992 115.06 38.1731 114.74 38.28C114.351 38.415 113.941 38.4793 113.53 38.47C113.134 38.4749 112.739 38.4175 112.36 38.3C112.043 38.2039 111.748 38.0477 111.49 37.84C111.262 37.6546 111.08 37.4183 110.96 37.15C110.834 36.881 110.769 36.5872 110.77 36.29V29.81ZM112.56 36.29C112.556 36.3987 112.578 36.5067 112.623 36.6057C112.668 36.7046 112.735 36.7917 112.82 36.86C113.029 37.0092 113.283 37.0832 113.54 37.07C113.671 37.0815 113.803 37.067 113.928 37.0276C114.053 36.9881 114.169 36.9244 114.27 36.84C114.351 36.7534 114.413 36.6509 114.453 36.539C114.493 36.4272 114.509 36.3083 114.5 36.19V33.82C114.506 33.7195 114.491 33.6189 114.457 33.5244C114.422 33.4298 114.369 33.3432 114.3 33.27C114.101 33.1237 113.856 33.056 113.61 33.08C113.244 33.0757 112.889 33.2036 112.61 33.44L112.56 36.29Z" fill="#F64C32"/>
<path d="M118.8 37.67C118.802 37.7774 118.78 37.8838 118.737 37.9822C118.694 38.0805 118.63 38.1684 118.55 38.24C118.37 38.3897 118.144 38.4716 117.91 38.4716C117.676 38.4716 117.45 38.3897 117.27 38.24C117.19 38.1684 117.126 38.0805 117.083 37.9822C117.04 37.8838 117.018 37.7774 117.02 37.67V32.5C117.018 32.394 117.039 32.2889 117.082 32.1921C117.126 32.0952 117.19 32.0092 117.27 31.94C117.45 31.7903 117.676 31.7084 117.91 31.7084C118.144 31.7084 118.37 31.7903 118.55 31.94C118.63 32.0092 118.694 32.0952 118.738 32.1921C118.781 32.2889 118.802 32.394 118.8 32.5V37.67Z" fill="#F64C32"/>
<path d="M124.61 32.51C124.619 32.5997 124.619 32.6902 124.61 32.78C124.578 32.8758 124.527 32.9642 124.46 33.04L121.63 37H123.77C123.998 36.9893 124.22 37.0683 124.39 37.22C124.468 37.2876 124.531 37.3712 124.574 37.4653C124.617 37.5593 124.64 37.6616 124.64 37.765C124.64 37.8684 124.617 37.9706 124.574 38.0647C124.531 38.1587 124.468 38.2424 124.39 38.31C124.22 38.4616 123.998 38.5406 123.77 38.53H120.18C119.945 38.5276 119.719 38.4427 119.54 38.29C119.454 38.2177 119.386 38.1273 119.339 38.0252C119.292 37.9232 119.269 37.8122 119.27 37.7C119.26 37.6237 119.26 37.5463 119.27 37.47C119.291 37.3768 119.336 37.2906 119.4 37.22L122.21 33.29H120.1C119.877 33.294 119.659 33.2157 119.49 33.07C119.41 33.0028 119.346 32.9185 119.303 32.8233C119.259 32.7282 119.238 32.6245 119.24 32.52C119.236 32.4152 119.257 32.3111 119.301 32.2157C119.344 32.1203 119.409 32.0362 119.49 31.97C119.66 31.827 119.878 31.7522 120.1 31.76H123.66C123.895 31.7515 124.125 31.8259 124.31 31.97C124.397 32.0316 124.47 32.1121 124.522 32.2057C124.574 32.2992 124.604 32.4032 124.61 32.51Z" fill="#F64C32"/>
<path d="M97 31.71C96.8823 31.71 96.7658 31.7334 96.6571 31.7787C96.5485 31.8241 96.4499 31.8905 96.3672 31.9742C96.2844 32.0579 96.219 32.1572 96.1749 32.2664C96.1308 32.3755 96.1087 32.4923 96.11 32.61V36.06C96.116 36.1807 96.0959 36.3012 96.051 36.4134C96.0061 36.5256 95.9376 36.6267 95.85 36.71C95.623 36.8597 95.357 36.9395 95.085 36.9395C94.8131 36.9395 94.5471 36.8597 94.32 36.71C94.2325 36.6267 94.164 36.5256 94.1191 36.4134C94.0742 36.3012 94.0541 36.1807 94.06 36.06V34.58H92.24V36.06C92.2379 36.3854 92.299 36.708 92.42 37.01C92.5414 37.3003 92.7259 37.5599 92.96 37.77C93.2146 37.9995 93.5144 38.1732 93.84 38.28C94.6304 38.532 95.4796 38.532 96.27 38.28C96.5957 38.1732 96.8954 37.9995 97.15 37.77C97.3842 37.5599 97.5687 37.3003 97.69 37.01C97.8111 36.708 97.8722 36.3854 97.87 36.06V32.61C97.87 32.3713 97.7752 32.1424 97.6064 31.9736C97.4377 31.8048 97.2087 31.71 96.97 31.71H97Z" fill="#F64C32"/>
<path d="M86.22 31.71C86.3382 31.71 86.4553 31.7333 86.5645 31.7785C86.6737 31.8238 86.7729 31.8901 86.8564 31.9736C86.94 32.0572 87.0063 32.1564 87.0515 32.2656C87.0968 32.3748 87.1201 32.4918 87.1201 32.61V36.06C87.112 36.1809 87.1312 36.3021 87.1762 36.4146C87.2212 36.5271 87.2909 36.628 87.38 36.71C87.5964 36.8778 87.867 36.9597 88.14 36.94C88.4159 36.9575 88.689 36.876 88.9101 36.71C88.9976 36.6267 89.0661 36.5256 89.111 36.4134C89.1559 36.3012 89.176 36.1807 89.17 36.06V34.58H91V36.06C90.9988 36.386 90.9342 36.7086 90.81 37.01C90.6888 37.2978 90.5082 37.5568 90.28 37.77C90.0218 37.9997 89.7188 38.1734 89.39 38.28C88.6032 38.5332 87.7568 38.5332 86.97 38.28C86.6433 38.1757 86.343 38.0017 86.09 37.77C85.8559 37.5599 85.6714 37.3003 85.5501 37.01C85.429 36.708 85.3679 36.3854 85.3701 36.06V32.61C85.3687 32.4923 85.3908 32.3755 85.4349 32.2664C85.479 32.1572 85.5444 32.0579 85.6272 31.9742C85.7099 31.8905 85.8085 31.8241 85.9171 31.7787C86.0258 31.7334 86.1423 31.71 86.2601 31.71H86.22Z" fill="#F64C32"/>
<path d="M93.13 35.6C93.0123 35.6 92.8957 35.5767 92.7871 35.5313C92.6785 35.486 92.5799 35.4195 92.4971 35.3358C92.4144 35.2521 92.349 35.1528 92.3049 35.0437C92.2607 34.9345 92.2387 34.8177 92.24 34.7V34.15C92.24 33.9803 92.1726 33.8175 92.0526 33.6975C91.9326 33.5774 91.7698 33.51 91.6 33.51C91.4303 33.51 91.2675 33.5774 91.1475 33.6975C91.0275 33.8175 90.96 33.9803 90.96 34.15V34.7C90.96 34.9387 90.8652 35.1676 90.6964 35.3364C90.5276 35.5052 90.2987 35.6 90.06 35.6C89.8213 35.6 89.5924 35.5052 89.4236 35.3364C89.2549 35.1676 89.16 34.9387 89.16 34.7V34.15C89.1387 33.8171 89.1858 33.4834 89.2985 33.1694C89.4112 32.8555 89.5871 32.568 89.8153 32.3247C90.0435 32.0814 90.3192 31.8874 90.6253 31.7549C90.9314 31.6223 91.2615 31.5539 91.595 31.5539C91.9286 31.5539 92.2586 31.6223 92.5647 31.7549C92.8708 31.8874 93.1465 32.0814 93.3747 32.3247C93.6029 32.568 93.7788 32.8555 93.8915 33.1694C94.0042 33.4834 94.0514 33.8171 94.03 34.15V34.7C94.03 34.8182 94.0068 34.9352 93.9615 35.0444C93.9163 35.1536 93.85 35.2528 93.7664 35.3364C93.6828 35.42 93.5836 35.4863 93.4744 35.5315C93.3653 35.5767 93.2482 35.6 93.13 35.6Z" fill="#F64C32"/>
<path d="M35.38 7.55998C35.3576 7.19226 35.4106 6.82384 35.5359 6.47741C35.6612 6.13097 35.8561 5.81384 36.1086 5.54553C36.361 5.27722 36.6657 5.06342 37.0039 4.91728C37.3421 4.77113 37.7066 4.69574 38.075 4.69574C38.4434 4.69574 38.8079 4.77113 39.1461 4.91728C39.4842 5.06342 39.7889 5.27722 40.0414 5.54553C40.2938 5.81384 40.4887 6.13097 40.614 6.47741C40.7393 6.82384 40.7924 7.19226 40.77 7.55998V8.40998C41.55 6.56998 42.83 4.85998 44.43 4.85998C44.7818 4.83469 45.135 4.88538 45.4656 5.00861C45.7961 5.13184 46.0963 5.32472 46.3458 5.57417C46.5952 5.82362 46.7881 6.12381 46.9113 6.45436C47.0346 6.78492 47.0853 7.13811 47.06 7.48998C47.0737 8.08561 46.8734 8.66641 46.4954 9.12696C46.1174 9.5875 45.5868 9.89725 45 9.99998C42.27 10.64 40.74 12.73 40.74 16.57V21.57C40.7624 21.9377 40.7093 22.3061 40.584 22.6526C40.4587 22.999 40.2638 23.3161 40.0114 23.5844C39.7589 23.8527 39.4542 24.0665 39.1161 24.2127C38.7779 24.3588 38.4134 24.4342 38.045 24.4342C37.6766 24.4342 37.3121 24.3588 36.9739 24.2127C36.6357 24.0665 36.331 23.8527 36.0786 23.5844C35.8261 23.3161 35.6312 22.999 35.5059 22.6526C35.3806 22.3061 35.3276 21.9377 35.35 21.57L35.38 7.55998Z" fill="#2FAEC3"/>
<path d="M50.47 7.55998C50.4476 7.19226 50.5006 6.82384 50.6259 6.47741C50.7512 6.13097 50.9461 5.81384 51.1986 5.54553C51.451 5.27722 51.7557 5.06342 52.0939 4.91728C52.4321 4.77113 52.7966 4.69574 53.165 4.69574C53.5334 4.69574 53.8979 4.77113 54.236 4.91728C54.5742 5.06342 54.8789 5.27722 55.1314 5.54553C55.3838 5.81384 55.5787 6.13097 55.704 6.47741C55.8293 6.82384 55.8824 7.19226 55.86 7.55998V21.62C55.8824 21.9877 55.8293 22.3561 55.704 22.7026C55.5787 23.049 55.3838 23.3661 55.1314 23.6344C54.8789 23.9027 54.5742 24.1165 54.236 24.2627C53.8979 24.4088 53.5334 24.4842 53.165 24.4842C52.7966 24.4842 52.4321 24.4088 52.0939 24.2627C51.7557 24.1165 51.451 23.9027 51.1986 23.6344C50.9461 23.3661 50.7512 23.049 50.6259 22.7026C50.5006 22.3561 50.4476 21.9877 50.47 21.62V7.55998Z" fill="#2FAEC3"/>
<path d="M60.9399 7.56002C60.9399 6.84394 61.2244 6.15718 61.7308 5.65083C62.2371 5.14448 62.9239 4.86002 63.6399 4.86002C64.356 4.86002 65.0428 5.14448 65.5491 5.65083C66.0555 6.15718 66.3399 6.84394 66.3399 7.56002V7.77002C66.952 6.85236 67.7799 6.09894 68.7511 5.57588C69.7222 5.05282 70.8069 4.77611 71.9099 4.77002C75.9899 4.77002 78.3699 7.47002 78.3699 11.84V21.67C78.3924 22.0377 78.3393 22.4062 78.214 22.7526C78.0887 23.099 77.8938 23.4162 77.6413 23.6845C77.3889 23.9528 77.0842 24.1666 76.746 24.3127C76.4078 24.4589 76.0433 24.5343 75.6749 24.5343C75.3065 24.5343 74.942 24.4589 74.6039 24.3127C74.2657 24.1666 73.961 23.9528 73.7085 23.6845C73.4561 23.4162 73.2612 23.099 73.1359 22.7526C73.0106 22.4062 72.9575 22.0377 72.9799 21.67V13.49C72.9799 10.93 71.7699 9.62002 69.7099 9.62002C67.6499 9.62002 66.3399 10.93 66.3399 13.49V21.62C66.3399 22.3361 66.0555 23.0229 65.5491 23.5292C65.0428 24.0356 64.356 24.32 63.6399 24.32C62.9239 24.32 62.2371 24.0356 61.7308 23.5292C61.2244 23.0229 60.9399 22.3361 60.9399 21.62V7.56002Z" fill="#2FAEC3"/>
<path d="M84 18.71V9.71H83.82C83.2349 9.67144 82.6863 9.41183 82.2856 8.9838C81.8848 8.55577 81.6619 7.99135 81.6619 7.405C81.6619 6.81865 81.8848 6.25423 82.2856 5.8262C82.6863 5.39817 83.2349 5.13856 83.82 5.1H84V2.7C84 2.34543 84.0698 1.99433 84.2055 1.66675C84.3412 1.33918 84.5401 1.04153 84.7908 0.790812C85.0415 0.540094 85.3391 0.341213 85.6667 0.205525C85.9943 0.0698376 86.3454 0 86.7 0C87.0545 0 87.4056 0.0698376 87.7332 0.205525C88.0608 0.341213 88.3584 0.540094 88.6092 0.790812C88.8599 1.04153 89.0587 1.33918 89.1944 1.66675C89.3301 1.99433 89.4 2.34543 89.4 2.7V5.08H91.78C92.365 5.11856 92.9136 5.37817 93.3143 5.8062C93.7151 6.23423 93.9381 6.79865 93.9381 7.385C93.9381 7.97135 93.7151 8.53577 93.3143 8.9638C92.9136 9.39183 92.365 9.65144 91.78 9.69H89.35V17.82C89.35 19.06 89.88 19.67 91.09 19.67C91.27 19.67 91.62 19.67 91.73 19.67C92.3216 19.6646 92.8915 19.8924 93.3164 20.3042C93.7413 20.716 93.9868 21.2785 94 21.87C93.9931 22.3024 93.8584 22.723 93.6128 23.0789C93.3672 23.4349 93.0217 23.7101 92.62 23.87C91.635 24.2487 90.5848 24.4289 89.53 24.4C86.19 24.42 84 23.11 84 18.71Z" fill="#2FAEC3"/>
<path d="M98.05 7.55998C98.0276 7.19226 98.0807 6.82384 98.206 6.47741C98.3313 6.13097 98.5262 5.81384 98.7786 5.54553C99.0311 5.27722 99.3358 5.06342 99.674 4.91728C100.012 4.77113 100.377 4.69574 100.745 4.69574C101.113 4.69574 101.478 4.77113 101.816 4.91728C102.154 5.06342 102.459 5.27722 102.711 5.54553C102.964 5.81384 103.159 6.13097 103.284 6.47741C103.409 6.82384 103.462 7.19226 103.44 7.55998V21.62C103.462 21.9877 103.409 22.3561 103.284 22.7026C103.159 23.049 102.964 23.3661 102.711 23.6344C102.459 23.9027 102.154 24.1165 101.816 24.2627C101.478 24.4088 101.113 24.4842 100.745 24.4842C100.377 24.4842 100.012 24.4088 99.674 24.2627C99.3358 24.1165 99.0311 23.9027 98.7786 23.6344C98.5262 23.3661 98.3313 23.049 98.206 22.7026C98.0807 22.3561 98.0276 21.9877 98.05 21.62V7.55998Z" fill="#2FAEC3"/>
<path d="M107.67 21.94V21.83C107.676 21.3327 107.787 20.8422 107.995 20.3907C108.204 19.9392 108.505 19.5368 108.88 19.21L117.72 9.44002H110.19C109.614 9.44269 109.06 9.21692 108.649 8.81213C108.239 8.40733 108.005 7.85645 108 7.28002C108.003 6.69735 108.235 6.1393 108.647 5.72729C109.059 5.31528 109.617 5.08265 110.2 5.08002H122C123.53 5.08002 124.63 5.96002 124.63 7.24002V7.35002C124.63 7.85163 124.523 8.34743 124.316 8.80438C124.109 9.26132 123.807 9.66892 123.43 10L114.56 19.76H122.44C123.023 19.7626 123.581 19.9953 123.993 20.4073C124.405 20.8193 124.637 21.3773 124.64 21.96C124.639 22.2467 124.581 22.5303 124.469 22.7943C124.358 23.0584 124.195 23.2978 123.99 23.4987C123.786 23.6995 123.543 23.8578 123.277 23.9645C123.011 24.0711 122.727 24.124 122.44 24.12H110.3C108.77 24.1 107.67 23.22 107.67 21.94Z" fill="#2FAEC3"/>
</g>
<defs>
<clipPath id="clip0_116_631">
<rect width="124.64" height="39.18" fill="white"/>
</clipPath>
</defs>
</svg>
